<svg width="157" height="209" viewBox="0 0 157 209" fill="none" xmlns="http://www.w3.org/2000/svg">
<g opacity="0.02">
<path d="M169.358 209.286C170.499 209.893 171.699 210.381 172.937 210.743C174.055 211.009 175.152 211.36 176.218 211.795L175.442 212.341C175.442 212.341 173.454 212.544 171.704 212.544C170.456 212.512 169.212 212.376 167.986 212.139L165.142 211.471L165.719 209.853L166.494 208.254L164.784 207.89H162.358H161.364H8.51063V0H0V215.923H226.168V207.83H167.886L169.358 209.286Z" fill="white"/>
<path d="M19.0881 42.2867C19.5597 41.6267 20.1627 41.0751 20.8578 40.6681C21.2555 40.5063 21.8123 39.4137 22.4884 39.009C22.7367 38.8915 22.9586 38.723 23.1399 38.5141C23.3213 38.3052 23.4583 38.0604 23.5423 37.7951C23.0303 37.6915 22.5032 37.6915 21.9913 37.7951C21.603 37.9222 21.2034 38.0103 20.7982 38.0581C20.5631 37.7733 20.3872 37.4429 20.2812 37.0869C20.2812 36.7228 18.9688 36.9251 18.9688 36.9251L18.412 36.3383C18.5719 35.7891 18.9356 35.3247 19.4261 35.0434C20.2812 34.5983 19.4261 33.8497 18.9091 34.0116C18.3921 34.1735 17.1991 34.74 17.5967 34.4162C17.9944 34.0925 17.5967 34.2746 17.5967 34.2139V43.5007L18.1734 43.2579C18.5246 43.0066 18.8335 42.6992 19.0881 42.3474" fill="white"/>
<path d="M19.4854 27.2933C19.9746 27.1785 20.4746 27.1175 20.9767 27.1112L22.1698 26.7066C22.1698 26.7066 22.5078 26.2615 23.8799 26.7066V25.6747C24.3532 25.056 24.8789 24.4805 25.4508 23.955C25.8484 23.611 24.6554 23.004 24.6554 23.004L22.6669 23.6515L20.6784 23.7931L19.5649 23.2873C19.5281 22.9443 19.5281 22.5983 19.5649 22.2554C19.5649 21.871 20.7977 21.2235 20.7977 21.2235C20.8243 20.8869 20.8243 20.5486 20.7977 20.2119C20.7977 19.8477 21.4142 19.1194 21.4142 19.1194L22.3885 19.3621L22.8459 18.5528C23.2634 17.7031 23.8401 18.1684 23.8401 18.1684L24.7946 19.0587L25.2121 19.7263H26.0274V14.2635C25.6695 14.2635 25.2121 14.0814 25.2121 14.0814C25.2121 14.0814 24.9139 13.1305 25.4905 12.9282C25.7198 12.8353 25.9099 12.6634 26.0274 12.4426V0.303009H17.5963V29.5999C17.6819 29.4374 17.789 29.2877 17.9145 29.1547C18.6502 28.568 19.028 27.4957 19.4854 27.2933Z" fill="white"/>
<path d="M26.1111 199.13H156.077C155.858 198.604 155.322 196.945 155.322 196.945C155.322 196.945 156.077 195.043 155.322 194.294C154.566 193.546 155.6 191.401 155.6 191.401V191.037H26.1111V39.0495L25.5742 39.4744C24.7193 39.7813 23.8499 40.0446 22.9693 40.2635C21.9353 40.6682 21.2194 41.9023 20.3047 42.651C19.7468 43.294 18.9886 43.7226 18.1572 43.8649C17.981 43.9135 17.8082 43.9743 17.6402 44.047V199.069L26.1111 199.13Z" fill="white"/>
<path d="M43.6475 182.375H153.013C152.677 181.701 152.423 180.987 152.257 180.25C152.205 179.132 152.452 178.02 152.973 177.033C153.252 176.118 153.347 175.154 153.252 174.201H43.6475V37.1246C43.6056 37.0304 43.5522 36.942 43.4884 36.8616C43.4884 36.8616 40.4261 35.4858 39.8892 35.1823C39.3524 34.8788 37.9008 34.2921 37.2844 33.9886C36.6679 33.6851 36.2901 33.6041 35.5146 34.2314C35.3634 34.2888 35.2224 34.3708 35.097 34.4742V182.375H43.6475Z" fill="white"/>
<path d="M36.0913 7.44292C35.5146 7.44292 36.6083 6.85618 37.3241 6.47176C38.04 6.08734 38.3382 6.97757 38.3382 6.97757C38.3382 6.97757 39.3524 6.47176 39.7898 6.3099C40.2273 6.14804 40.3665 6.85618 40.3665 6.85618C40.5957 6.92537 40.8214 7.00641 41.0426 7.09897C41.3762 7.23071 41.6564 7.47307 41.838 7.78688C41.8872 7.96553 41.8872 8.15451 41.838 8.33316C41.838 8.61642 41.997 8.71758 42.176 8.87945C42.3549 9.04131 42.8123 9.40549 43.1304 9.60781C43.2642 9.7255 43.4197 9.81492 43.5878 9.87084V0.199646H35.097V8.02967C35.5146 7.82734 36.6083 7.36199 36.0913 7.44292Z" fill="white"/>
<path d="M54.7816 14.7469C54.7816 14.7469 55.6565 15.0909 55.8355 15.0302C55.8963 15.06 55.9454 15.1099 55.9747 15.1718H55.8554C55.8554 15.1718 56.0344 15.6776 56.273 15.8192C56.5116 15.9609 56.8695 16.0013 57.1081 16.1227C57.09 16.0212 57.1055 15.9164 57.1523 15.8248C57.1991 15.7332 57.2745 15.6601 57.3666 15.6169C57.4782 15.4525 57.5715 15.2761 57.645 15.0909C57.781 14.8152 57.9005 14.5314 58.0029 14.2411C58.0417 14.0591 58.1018 13.8825 58.1819 13.715C58.1819 13.5329 58.1819 13.5734 58.4603 13.5734C59.0966 13.5734 59.4744 14.2411 60.0113 13.8769C60.215 13.7546 60.4365 13.6659 60.6675 13.6139C60.908 13.5816 61.1425 13.5135 61.3634 13.4115V0.199646H52.7932V13.5127C53.0906 13.7836 53.4256 14.0086 53.7874 14.1804C54.1511 14.3443 54.5032 14.5336 54.8413 14.7469" fill="white"/>
<path d="M59.6136 16.4926C59.8375 16.531 60.067 16.5202 60.2865 16.4609C60.506 16.4016 60.7105 16.2951 60.8862 16.1486C61.0044 16.1263 61.1184 16.0854 61.2242 16.0272V14.9549C61.0597 15.1461 60.8727 15.316 60.6674 15.4607C60.3891 15.4607 60.1504 15.4607 59.9118 15.6024C59.6732 15.744 59.0369 16.351 59.6136 16.4926Z" fill="white"/>
<path d="M61.224 165.563H151.977C151.824 165.094 151.757 164.601 151.779 164.107C151.703 162.837 151.844 161.564 152.196 160.343C152.35 159.379 152.35 158.395 152.196 157.43H61.224V80.3436C61.0033 79.9318 60.714 79.5621 60.3689 79.2511L59.3747 78.6441C58.773 78.3075 58.2124 77.9001 57.7044 77.4301C57.4658 77.1064 56.3721 76.0745 56.1335 75.7913C55.9702 75.1994 55.903 74.5843 55.9347 73.9704C55.9347 73.9704 55.0001 72.979 54.7416 72.6148C54.4831 72.2506 53.6877 71.2389 53.7473 70.7331C53.807 70.2273 53.7473 69.2764 53.7473 69.2764C53.7566 68.5387 53.7101 67.8014 53.6082 67.071C53.6133 66.4402 53.707 65.8134 53.8865 65.2096C54.0854 64.5622 54.5228 61.0417 55.1989 60.5359C55.5949 60.1421 55.8769 59.6452 56.0142 59.0994L56.73 58.108C56.6936 57.405 56.5177 56.7168 56.213 56.0847C55.5404 55.1556 54.7956 54.2828 53.986 53.4747C53.4888 53.1712 53.0514 51.2491 52.6537 50.3387V165.665L61.224 165.563Z" fill="white"/>
<path d="M70.5125 90.0381L73.7935 95.6628V97.5444L70.3137 94.5702V148.854H151.344C151.165 147.499 149.077 146.952 147.943 146.426C146.323 145.93 144.763 145.251 143.29 144.403C142.082 143.315 140.989 142.101 140.029 140.782C140.014 140.718 139.979 140.661 139.93 140.62H78.8442V95.3795L76.8557 94.469L75.8018 93.8823L75.941 92.9921V91.9602C75.4288 91.5629 74.95 91.123 74.5093 90.6451C73.9596 90.043 73.3682 89.4818 72.7396 88.9658C72.2073 88.6004 71.7082 88.1874 71.2482 87.7316C71.0295 87.3674 70.8903 86.7806 70.6716 86.4569C70.4529 86.1332 70.6716 86.2951 70.4727 86.1939V89.593L70.771 89.8762L70.5125 90.0381Z" fill="white"/>
<path d="M71.8448 15.9811C71.9641 16.1025 71.8448 16.2239 71.9641 16.3655C72.0834 16.5071 72.8788 16.8916 73.2765 16.932C73.4466 16.9718 73.6234 16.9718 73.7935 16.932C73.9724 16.932 74.1116 16.932 74.2309 16.932C74.3502 16.932 74.4099 17.0737 74.5093 17.0939C74.6362 17.2059 74.7765 17.301 74.9269 17.3771C75.1059 17.5188 75.3047 17.5795 75.4638 17.7009C75.6229 17.8223 75.3445 17.7009 75.3445 17.5795C75.4527 17.6321 75.5428 17.7167 75.603 17.8223C75.603 17.8223 75.4837 17.8223 75.4638 17.7009C75.7223 18.0448 76.0007 18.3483 76.5376 18.1662C77.0745 17.9841 76.7762 18.0448 76.9551 17.9032C77.1341 17.7616 77.1142 17.9032 77.2335 18.0651C77.3528 18.2269 77.7704 18.409 77.5716 18.6113C77.3727 18.8137 77.1938 18.8339 77.1142 18.9553C77.0347 19.0767 76.8557 19.2992 76.5574 19.4206C76.2734 19.5609 75.9726 19.6629 75.6626 19.7241C75.6626 19.9872 75.6626 20.2097 75.9609 20.3513C76.2592 20.493 76.1796 20.4525 76.2791 20.5334C76.3785 20.6144 76.2791 20.7155 76.4182 20.7358C76.4706 20.8007 76.538 20.8513 76.6144 20.8831C76.6907 20.9149 76.7737 20.9268 76.8557 20.9179C77.154 20.9179 77.154 21.0595 77.3727 21.2011C77.5914 21.3427 78.3073 21.2011 78.6453 21.2011C78.7104 21.183 78.7791 21.183 78.8442 21.2011V0.199646H70.3137V15.4146H70.7312C71.1886 15.4146 71.5863 15.5764 71.8448 15.9811Z" fill="white"/>
<path d="M96.381 132.1H133.088C132.607 131.644 132.149 131.165 131.716 130.663C131.199 129.894 130.722 128.518 130.225 127.932C129.728 127.345 130.225 125.443 130.225 125.443V123.926H96.4208V103.207H95.2078L91.3502 102.641C91.3502 102.641 90.2565 99.6667 89.3617 99.1204C88.8788 98.8485 88.3809 98.6053 87.8704 98.392V132.1H96.381Z" fill="white"/>
<path d="M94.7876 41.9603C95.1694 41.9393 95.552 41.9802 95.921 42.0817C96.0808 42.1392 96.2341 42.2138 96.3784 42.3043V31.7024L96.2392 31.8642C95.4483 32.452 94.7736 33.1865 94.2507 34.0291C94.2507 34.0291 94.2507 34.0291 94.2507 33.9077C94.2507 33.7863 93.8331 34.3326 93.7536 34.4742C93.4553 34.9396 92.8588 35.3442 92.5804 35.9107C92.302 36.4773 92.5804 36.8212 92.143 37.2663C92.0241 37.4299 91.9413 37.6175 91.9002 37.8165C91.859 38.0155 91.8604 38.2212 91.9043 38.4196C91.9286 38.5536 92.0012 38.6735 92.1079 38.7559C92.2146 38.8383 92.3476 38.8771 92.481 38.8647C92.6886 38.8414 92.8871 38.7648 93.0577 38.6422C93.177 38.6422 93.2764 38.3589 93.4553 38.3387C93.4553 38.3387 93.6343 38.3184 93.4553 38.3387C93.4553 38.3387 93.6542 38.7838 93.8133 38.9659C93.9723 39.148 94.1712 39.2087 94.2706 39.4515C94.37 39.6943 94.2706 40.1596 94.4496 40.0584C94.6285 39.9573 94.3303 40.2001 94.3104 40.2405C94.6882 40.5238 94.5291 40.888 94.3104 41.2522C94.0916 41.6164 94.3104 41.8592 94.8672 41.8794" fill="white"/>
<path d="M88.3079 20.7973C88.4137 20.7468 88.5291 20.7206 88.6459 20.7206C88.7628 20.7206 88.8782 20.7468 88.984 20.7973C89.595 20.9854 90.1929 21.2152 90.7736 21.4852L91.4497 21.6875C91.8672 21.6875 92.245 22.0315 92.7223 21.8291C93.1995 21.6268 93.4381 21.1615 93.7762 20.8984C94.1142 20.6354 94.4324 20.1296 94.83 20.1296C94.83 20.251 94.83 20.3724 94.6909 20.4736C94.5517 20.5747 94.5318 21.0603 94.1739 21.2829C94.1277 21.3318 94.1019 21.3971 94.1019 21.465C94.1019 21.5328 94.1277 21.5981 94.1739 21.6471C94.5914 21.3638 94.7903 22.0719 94.7306 22.2743C94.671 22.4766 93.9153 23.0026 94.2335 23.3061C93.9551 23.5287 94.3528 23.7917 94.5914 23.7108C95.004 23.5854 95.3531 23.3027 95.5658 22.9217C95.8254 22.5807 96.0518 22.2148 96.2419 21.8291C96.2419 21.7078 96.3413 21.6875 96.3811 21.5661V0.160004H87.8505V20.8782H88.0096C88.1088 20.8681 88.2087 20.8681 88.3079 20.8782" fill="white"/>
<path d="M90.4556 94.226L91.41 96.047L93.6769 93.8821C93.6769 93.8821 94.5916 91.9802 95.0091 91.2721C95.2954 90.6889 95.7844 90.2346 96.3812 89.9974V79.2134L95.5858 79.436C95.2502 79.5804 94.9358 79.771 94.6512 80.0025C94.4524 80.2858 94.6512 80.2858 94.0746 80.5083C93.8881 80.6778 93.6623 80.7962 93.4184 80.8523L92.2849 80.7309L90.4953 80.4274L89.7795 80.8725C89.7795 80.8725 89.8988 80.7309 87.791 81.8437V93.8214C88.1906 94.1915 88.6564 94.48 89.1631 94.6711C89.3851 94.6981 89.6102 94.6759 89.823 94.606C90.0358 94.5362 90.2312 94.4204 90.3959 94.2665" fill="white"/>
<path d="M113.977 115.309H131.874C132.231 113.67 127.897 113.063 127.559 112.598C127.559 112.598 126.087 112.375 125.689 111.849C125.292 111.323 123.204 109.826 123.204 109.826C121.633 109.798 120.064 109.961 118.531 110.312L117.736 111.505L114.972 111.081C114.383 110.907 113.831 110.626 113.341 110.251H111.094L109.981 109.583L107.674 109.26L106.083 108.814L105.745 107.176L105.427 106.933V115.188L113.977 115.309Z" fill="white"/>
<path d="M146.251 107.962C146.699 107.88 147.107 107.645 147.405 107.294C147.405 107.294 147.583 107.294 147.723 107.132H144.959L145.098 107.476C145.247 107.633 145.427 107.757 145.625 107.841C145.823 107.924 146.037 107.966 146.251 107.962Z" fill="white"/>
<path d="M125.018 107.7L126.27 108.044L127.742 109.035H129.014C129.014 109.035 131.321 107.882 133.091 107.012H123.884L125.018 107.7Z" fill="white"/>
<path d="M107.853 98.9359C108.409 99.0591 108.975 99.1336 109.543 99.1584C110.179 99.1584 109.762 100.008 109.762 100.008L109.901 102.031C109.904 102.526 109.944 103.02 110.02 103.508C109.994 104.327 109.854 105.138 109.603 105.916C109.975 106.129 110.305 106.411 110.577 106.746C111.015 107.353 111.512 107.535 112.705 107.96C113.318 108.145 113.892 108.447 114.395 108.85C114.395 108.85 116.523 108.85 117 108.85C117.628 108.558 118.195 108.146 118.67 107.636L120.838 107.292H113.977V64.1155C113.879 64.2103 113.765 64.2858 113.639 64.3381C113.209 64.5489 112.802 64.8067 112.426 65.1069C112.168 65.1069 112.009 65.6532 111.929 65.815C111.85 65.9769 111.253 66.159 110.995 66.2804C110.672 66.3132 110.36 66.4167 110.08 66.5839C109.933 66.6954 109.816 66.8428 109.739 67.0126C109.663 67.1823 109.63 67.3688 109.643 67.555C109.622 67.8889 109.512 68.2107 109.324 68.4857C109.324 68.6881 109.643 69.2141 109.762 69.5379C109.795 69.7401 109.87 69.933 109.981 70.1044C109.753 70.6685 109.487 71.216 109.185 71.7432L108.37 72.4109C107.871 72.9561 107.34 73.4696 106.779 73.9486C106.285 74.3308 105.832 74.7648 105.427 75.2435V98.6324L106.004 98.3491L107.853 98.9359Z" fill="white"/>
<path d="M105.705 51.025C105.705 51.2678 105.705 51.2678 106.083 51.2071C106.442 51.1438 106.794 51.049 107.137 50.9239C107.634 50.5799 107.912 50.0943 108.33 49.7504C108.748 49.4064 109.782 48.759 109.265 48.0913C109.086 47.8485 108.807 47.6867 108.767 47.3427C108.728 46.9987 108.767 46.8369 108.628 46.675C108.489 46.5132 107.853 46.1692 107.674 45.7443C107.495 45.3194 107.674 45.542 107.912 45.279C108.145 44.9836 108.436 44.7421 108.767 44.5708C108.946 44.5708 109.185 44.4292 109.265 44.2876C109.265 44.2876 109.344 44.1459 109.265 44.2876C109.402 44.0739 109.577 43.8886 109.782 43.7413C109.941 43.5997 110.14 43.5592 110.279 43.3973C110.414 43.1373 110.567 42.8872 110.736 42.6487C111.154 42.1834 111.691 41.3336 111.293 40.6255C111.105 40.3178 110.892 40.0268 110.657 39.7555C110.537 39.6138 110.398 39.5531 110.358 39.371C110.318 39.1889 110.577 38.9866 110.537 38.7843C110.497 38.582 109.98 38.6224 109.98 38.4403C109.98 38.2583 110.517 37.8738 110.657 37.7524C110.634 37.6187 110.647 37.4814 110.692 37.3538C110.737 37.2262 110.814 37.1126 110.915 37.0241C111.029 36.9545 111.129 36.8655 111.213 36.761C111.333 36.5992 111.213 36.3968 111.372 36.1945C111.531 35.9922 111.512 35.9315 111.591 35.7292C111.584 35.6375 111.553 35.5494 111.5 35.4745C111.447 35.3997 111.376 35.3408 111.293 35.3043C110.995 34.9806 110.657 34.6973 110.955 34.2522C111.174 33.826 111.448 33.4313 111.77 33.0787C111.952 32.9234 112.09 32.7206 112.168 32.492C112.204 32.3527 112.204 32.2063 112.168 32.0671C112.327 31.804 112.784 31.885 113.063 31.9457C113.227 32.0075 113.386 32.0819 113.54 32.1682C113.54 32.1682 113.54 32.3908 113.759 32.4515H113.878V0.0792847H105.327V21.708L105.606 21.5259C105.908 21.1909 106.114 20.778 106.202 20.3321C106.322 19.968 106.421 19.5431 106.58 19.1587C106.691 18.9389 106.847 18.7458 107.038 18.5921C107.183 18.4691 107.352 18.3794 107.535 18.3291C107.753 18.0459 107.535 18.0459 107.276 17.8233C107.018 17.6007 107.276 17.621 107.276 17.4591C107.276 17.2973 107.475 16.9938 107.813 17.0747C108.151 17.1556 108.072 17.3377 108.27 17.4996C108.469 17.6614 108.489 17.4996 108.748 17.621C109.006 17.7424 108.986 17.8233 109.125 17.9245C109.265 18.0256 109.941 18.147 109.98 18.4707C110.02 18.7945 109.642 19.0373 109.503 19.2193C109.364 19.4014 109.304 19.8668 108.986 20.0894C108.668 20.3119 108.489 20.3726 108.489 20.5952C108.599 20.7155 108.726 20.8178 108.867 20.8987C108.986 20.8987 109.404 21.1415 109.444 21.2224C109.483 21.3033 109.304 21.6877 109.205 21.7889C109.065 22.0604 108.851 22.2852 108.589 22.4363C108.231 22.7601 108.33 23.2052 107.873 23.4277C107.519 23.524 107.142 23.4806 106.819 23.3063C106.68 23.3063 106.68 23.3063 106.58 23.1242C106.103 22.9219 105.964 23.4277 105.606 23.5289C105.481 23.5569 105.352 23.5569 105.228 23.5289V50.3776C105.266 50.394 105.3 50.4188 105.328 50.4503C105.355 50.4818 105.376 50.5192 105.387 50.5597C105.506 50.5597 105.387 50.8632 105.506 50.9643" fill="white"/>
<path d="M131.498 98.5356H226.248V90.4425H131.498V47.4077C131.246 47.6289 131.007 47.8653 130.782 48.1158C129.949 48.7648 129.005 49.2518 127.998 49.5524C126.973 49.7239 125.936 49.8118 124.896 49.8154C124.896 49.8154 123.823 50.0379 122.908 50.2807V55.3996C123.393 55.5614 123.817 55.8725 124.121 56.2898C124.32 56.5326 124.538 56.9373 124.896 57.0789C125.254 57.2205 126.368 56.4517 126.368 56.4517L127.064 56.0268L127.243 56.5326C127.243 56.5326 127.243 56.7552 126.845 56.917C126.447 57.0789 126.567 57.261 126.01 57.6859C125.645 58.0375 125.221 58.3186 124.757 58.5154C124.266 58.5572 123.78 58.6452 123.306 58.7784H123.007V98.5356H131.498Z" fill="white"/>
<path d="M124.738 35.47L125.672 35.2879C125.719 35.6505 125.719 36.0179 125.672 36.3805C125.61 36.9295 125.651 37.4855 125.792 38.0193C125.849 38.117 125.937 38.1922 126.042 38.2326C126.147 38.273 126.262 38.2762 126.368 38.2419C126.726 38.2419 127.104 38.8286 127.581 39.0107C128.058 39.1928 128.277 39.557 128.237 39.9009C128.198 40.2449 127.88 40.4472 127.78 41.1756C127.681 41.904 128.794 41.904 129.152 42.0861C129.51 42.2682 131.141 42.4098 131.141 42.5109C131.141 42.6121 131.439 43.0168 131.379 43.2596V0.103363H122.988V38.2419C123.147 37.8979 123.783 36.6232 123.922 36.4209C124.164 36.1035 124.438 35.812 124.738 35.5509" fill="white"/>
<path d="M128.514 47.6864C128.514 47.6864 128.753 47.221 128.713 47.1198C128.673 47.0187 128.713 46.7152 128.991 46.4926C129.27 46.2701 129.588 46.2903 130.145 46.2701C130.383 46.2701 130.98 45.9666 131.497 45.7238V43.2959C131.5 43.3161 131.498 43.3367 131.493 43.3563C131.487 43.3759 131.477 43.394 131.464 43.4094C131.451 43.4248 131.434 43.4371 131.416 43.4454C131.398 43.4537 131.378 43.458 131.358 43.4577C130.98 43.4577 130.98 44.2873 130.423 44.6312C129.866 44.9752 128.832 45.1371 128.435 45.5417C128.037 45.9464 128.634 46.2701 128.693 46.4319C128.753 46.5938 128.554 46.7152 128.176 47.1198C127.798 47.5245 128.455 47.6864 128.455 47.6864" fill="white"/>
<path d="M149.115 73.5634V0.118942H140.584V73.5634V81.7171H149.115H226.526V73.5634H149.115Z" fill="white"/>
<path d="M96.38 30.8103V31.7006C96.5192 31.5792 96.738 31.4173 96.6783 31.2554C96.6186 31.0936 96.3999 30.9722 96.38 30.8103Z" fill="white"/>
</g>
</svg>
