<svg width="87" height="30" viewBox="0 0 87 30" fill="none" xmlns="http://www.w3.org/2000/svg">
<g clip-path="url(#clip0_553_714)">
<path d="M20.9158 26.6042C21.0558 26.6786 21.2027 26.7384 21.3545 26.7828C21.4916 26.8153 21.626 26.8584 21.7566 26.9117L21.6616 26.9787C21.6616 26.9787 21.4179 27.0035 21.2034 27.0035C21.0504 26.9995 20.898 26.9829 20.7476 26.9539L20.3991 26.872L20.4698 26.6736L20.5648 26.4777L20.3552 26.4331H20.0579H19.936H1.20129V0.952637H0.158173V27.4176H27.8789V26.4257H20.7354L20.9158 26.6042Z" fill="white"/>
<path d="M20.7184 24.3848C20.6745 24.4964 20.7184 24.8213 20.6355 24.8461C20.5527 24.8709 20.7623 25.1759 20.7623 25.1759L20.7111 25.3594H27.9081V24.3674H20.7355C20.7355 24.3674 20.7355 24.3823 20.7184 24.3898" fill="white"/>
<path d="M2.49777 6.13559C2.55557 6.05469 2.62948 5.98709 2.71468 5.93721C2.76342 5.91737 2.83166 5.78345 2.91453 5.73386C2.94497 5.71945 2.97216 5.69879 2.99439 5.67319C3.01661 5.64759 3.0334 5.61758 3.0437 5.58507C2.98095 5.57237 2.91635 5.57237 2.8536 5.58507C2.80601 5.60065 2.75703 5.61145 2.70737 5.61731C2.67855 5.58239 2.657 5.5419 2.644 5.49827C2.644 5.45364 2.48314 5.47843 2.48314 5.47843L2.4149 5.40652C2.4345 5.3392 2.47908 5.28228 2.5392 5.24781C2.644 5.19325 2.5392 5.1015 2.47583 5.12134C2.41247 5.14118 2.26623 5.21061 2.31498 5.17093C2.36372 5.13125 2.31498 5.15357 2.31498 5.14613V6.28438L2.38566 6.25463C2.4287 6.22383 2.46656 6.18614 2.49777 6.14303" fill="white"/>
<path d="M2.54669 4.29776C2.60666 4.28369 2.66794 4.27621 2.72948 4.27544L2.87571 4.22584C2.87571 4.22584 2.91714 4.17129 3.08531 4.22584V4.09937C3.14333 4.02354 3.20776 3.953 3.27785 3.88858C3.32659 3.84643 3.18036 3.77203 3.18036 3.77203L2.93664 3.85139L2.69292 3.86875L2.55644 3.80675C2.55193 3.76472 2.55193 3.72231 2.55644 3.68028C2.55644 3.63316 2.70754 3.5538 2.70754 3.5538C2.7108 3.51254 2.7108 3.47108 2.70754 3.42981C2.70754 3.38517 2.7831 3.2959 2.7831 3.2959L2.90252 3.32566L2.95858 3.22646C3.00976 3.12231 3.08044 3.17935 3.08044 3.17935L3.19742 3.28846L3.2486 3.3703H3.34853V2.70074C3.30466 2.70074 3.2486 2.67842 3.2486 2.67842C3.2486 2.67842 3.21204 2.56186 3.28272 2.53707C3.31083 2.52568 3.33412 2.50462 3.34853 2.47755V0.989639H2.31516V4.58046C2.32565 4.56055 2.33877 4.5422 2.35415 4.52591C2.44433 4.45399 2.49063 4.32256 2.54669 4.29776Z" fill="white"/>
<path d="M3.35832 25.3591H19.2879C19.261 25.2946 19.1952 25.0913 19.1952 25.0913C19.1952 25.0913 19.2879 24.8582 19.1952 24.7664C19.1026 24.6747 19.2294 24.4118 19.2294 24.4118V24.3672H3.35832V5.73854L3.29251 5.79062C3.18773 5.82822 3.08117 5.8605 2.97324 5.88733C2.8465 5.93693 2.75876 6.0882 2.64665 6.17995C2.57826 6.25878 2.48534 6.3113 2.38344 6.32874C2.36184 6.33469 2.34066 6.34215 2.32007 6.35106V25.3517L3.35832 25.3591Z" fill="white"/>
<path d="M5.5078 23.3062H18.9124C18.8712 23.2236 18.8401 23.1362 18.8198 23.0459C18.8133 22.9088 18.8437 22.7725 18.9075 22.6516C18.9417 22.5393 18.9533 22.4213 18.9416 22.3044H5.5078V5.50339C5.50268 5.49185 5.49613 5.48101 5.48831 5.47116C5.48831 5.47116 5.11298 5.30253 5.04717 5.26533C4.98137 5.22813 4.80345 5.15621 4.7279 5.11902C4.65235 5.08182 4.60604 5.0719 4.51099 5.14877C4.49246 5.15581 4.47517 5.16586 4.45981 5.17853V23.3062H5.5078Z" fill="white"/>
<path d="M4.58167 1.86503C4.51099 1.86503 4.64504 1.79312 4.73278 1.746C4.82051 1.69889 4.85707 1.808 4.85707 1.808C4.85707 1.808 4.98137 1.746 5.03499 1.72616C5.08861 1.70633 5.10567 1.79312 5.10567 1.79312C5.13377 1.8016 5.16142 1.81153 5.18853 1.82288C5.22942 1.83903 5.26377 1.86873 5.28602 1.90719C5.29205 1.92909 5.29205 1.95225 5.28602 1.97415C5.28602 2.00887 5.30552 2.02127 5.32745 2.04111C5.34939 2.06094 5.40544 2.10558 5.44444 2.13038C5.46083 2.1448 5.47989 2.15576 5.50049 2.16262V0.977249H4.45981V1.93695C4.51099 1.91215 4.64504 1.85512 4.58167 1.86503Z" fill="white"/>
<path d="M27.8325 22.304H21.6713C21.6786 22.3175 21.6876 22.33 21.6981 22.3412C21.7566 22.4106 21.8711 22.4552 21.8979 22.5643C21.9193 22.6118 21.9254 22.665 21.9153 22.7162C21.9053 22.7674 21.8796 22.814 21.8419 22.8495C21.6649 22.963 21.4665 23.0374 21.2594 23.0678C21.1668 23.0802 21.1254 23.219 21.101 23.3157H27.8325V22.304Z" fill="white"/>
<path d="M6.8725 2.76026C6.8725 2.76026 6.97974 2.80242 7.00168 2.79498C7.00913 2.79863 7.01514 2.80475 7.01874 2.81234H7.00411C7.00411 2.81234 7.02605 2.87433 7.05529 2.89169C7.08454 2.90905 7.12841 2.91401 7.15766 2.92889C7.15543 2.91645 7.15734 2.9036 7.16307 2.89238C7.16881 2.88115 7.17805 2.87219 7.18934 2.86689C7.20301 2.84675 7.21446 2.82512 7.22346 2.80242C7.24013 2.76863 7.25478 2.73385 7.26733 2.69826C7.27208 2.67596 7.27944 2.65431 7.28927 2.63379C7.28927 2.61147 7.28927 2.61643 7.32339 2.61643C7.40138 2.61643 7.44768 2.69826 7.51349 2.65363C7.53846 2.63864 7.56561 2.62776 7.59392 2.62139C7.62339 2.61744 7.65214 2.60908 7.67922 2.59659V0.977249H6.62878V2.60899C6.66525 2.64219 6.7063 2.66977 6.75064 2.69083C6.79522 2.71092 6.83838 2.73412 6.87982 2.76026" fill="white"/>
<path d="M27.8693 20.2486H23.5968C23.5412 20.2836 23.4876 20.3217 23.436 20.3626C23.3875 20.474 23.3665 20.5957 23.3751 20.7172C23.3751 20.8065 23.3897 21.0024 23.3897 21.0024C23.3792 21.0866 23.3612 21.1696 23.3361 21.2504H27.8693V20.2486Z" fill="white"/>
<path d="M7.46502 2.97398C7.49247 2.97869 7.5206 2.97736 7.5475 2.97009C7.57441 2.96282 7.59947 2.94977 7.621 2.93182C7.63549 2.92909 7.64947 2.92407 7.66244 2.91694V2.78551C7.64228 2.80894 7.61936 2.82977 7.59419 2.8475C7.56007 2.8475 7.53083 2.8475 7.50158 2.86486C7.47234 2.88222 7.39434 2.95662 7.46502 2.97398Z" fill="white"/>
<path d="M7.66219 21.2454H18.7856C18.7668 21.1879 18.7585 21.1274 18.7612 21.0668C18.7519 20.9112 18.7692 20.7552 18.8124 20.6056C18.8312 20.4873 18.8312 20.3667 18.8124 20.2485H7.66219V10.8003C7.63515 10.7498 7.59969 10.7045 7.55739 10.6663L7.43553 10.5919C7.36179 10.5507 7.29307 10.5008 7.2308 10.4432C7.20156 10.4035 7.06751 10.277 7.03827 10.2423C7.01825 10.1697 7.01002 10.0943 7.01389 10.0191C7.01389 10.0191 6.89935 9.89759 6.86766 9.85295C6.83598 9.80831 6.73849 9.68432 6.7458 9.62232C6.75311 9.56033 6.7458 9.44377 6.7458 9.44377C6.74694 9.35336 6.74123 9.26299 6.72874 9.17347C6.72937 9.09616 6.74086 9.01933 6.76286 8.94532C6.78723 8.86597 6.84085 8.43447 6.92372 8.37248C6.97225 8.32421 7.00681 8.2633 7.02364 8.19641L7.11138 8.0749C7.10691 7.98873 7.08535 7.90438 7.04801 7.82691C6.96557 7.71303 6.87429 7.60606 6.77505 7.50701C6.71412 7.46981 6.6605 7.23423 6.61176 7.12263V21.2578L7.66219 21.2454Z" fill="white"/>
<path d="M8.80053 11.9882L9.20266 12.6776V12.9082L8.77615 12.5437V19.1971H18.7077C18.6858 19.0309 18.4299 18.964 18.291 18.8995C18.0924 18.8387 17.9011 18.7555 17.7207 18.6515C17.5726 18.5181 17.4387 18.3693 17.321 18.2076C17.3191 18.1999 17.3148 18.1929 17.3088 18.1878H9.82171V12.6429L9.57799 12.5313L9.44882 12.4593L9.46588 12.3502V12.2238C9.4031 12.1751 9.34441 12.1211 9.2904 12.0626C9.22303 11.9888 9.15054 11.92 9.07349 11.8567C9.00826 11.812 8.94708 11.7613 8.8907 11.7055C8.86389 11.6608 8.84683 11.5889 8.82002 11.5492C8.79321 11.5096 8.82002 11.5294 8.79565 11.517V11.9336L8.83221 11.9683L8.80053 11.9882Z" fill="white"/>
<path d="M8.96382 2.91153C8.97844 2.92641 8.96382 2.94129 8.97844 2.95865C8.99306 2.97601 9.09055 3.02313 9.1393 3.02809C9.16015 3.03296 9.18181 3.03296 9.20266 3.02809C9.2246 3.02809 9.24166 3.02809 9.25628 3.02809C9.27091 3.02809 9.27822 3.04544 9.2904 3.04792C9.30595 3.06165 9.32315 3.07331 9.34158 3.08264C9.36352 3.1 9.38789 3.10744 9.40739 3.12232C9.42689 3.1372 9.39276 3.12232 9.39276 3.10744C9.40603 3.11389 9.41707 3.12426 9.42445 3.1372C9.42445 3.1372 9.40983 3.1372 9.40739 3.12232C9.43907 3.16448 9.47319 3.20167 9.539 3.17936C9.6048 3.15704 9.56824 3.16448 9.59018 3.14712C9.61211 3.12976 9.60968 3.14712 9.6243 3.16696C9.63892 3.1868 9.6901 3.20911 9.66573 3.23391C9.64136 3.25871 9.61943 3.26119 9.60968 3.27607C9.59993 3.29095 9.57799 3.31823 9.54143 3.33311C9.50662 3.35029 9.46975 3.3628 9.43176 3.3703C9.43176 3.40254 9.43176 3.42982 9.46832 3.44718C9.50488 3.46454 9.49513 3.45958 9.50731 3.4695C9.5195 3.47942 9.50731 3.49182 9.52437 3.4943C9.53079 3.50225 9.53905 3.50846 9.54841 3.51235C9.55777 3.51625 9.56794 3.51772 9.57799 3.51662C9.61455 3.51662 9.61455 3.53397 9.64136 3.55133C9.66817 3.56869 9.75591 3.55133 9.79734 3.55133C9.80532 3.54912 9.81373 3.54912 9.82171 3.55133V0.977249H8.77615V2.8421H8.82733C8.88339 2.8421 8.93214 2.86194 8.96382 2.91153Z" fill="white"/>
<path d="M27.8985 18.1924H25.2395V18.2097C25.2402 18.4247 25.214 18.6389 25.1615 18.8471C25.1323 18.9363 25.0835 19.0603 25.025 19.1967H27.8985V18.1924Z" fill="white"/>
<path d="M27.8327 17.1434V16.1514H23.7309L24.1208 16.2878L24.6546 16.3498C24.6546 16.3498 24.9543 16.4168 25.0591 16.4366C25.1639 16.4565 25.2858 16.635 25.3443 16.7268C25.4028 16.8185 25.6684 16.7912 25.7464 16.8384C25.8284 16.9089 25.8984 16.9926 25.9536 17.0863C25.9536 17.0863 25.9536 17.1037 25.9268 17.1434H27.8327Z" fill="white"/>
<path d="M11.9714 17.1436H16.4704C16.4115 17.0878 16.3554 17.029 16.3023 16.9675C16.2389 16.8733 16.1804 16.7046 16.1195 16.6327C16.0586 16.5608 16.1195 16.3277 16.1195 16.3277V16.1417H11.9762V13.6023H11.8276L11.3548 13.5329C11.3548 13.5329 11.2207 13.1684 11.111 13.1014C11.0519 13.0681 10.9908 13.0383 10.9283 13.0121V17.1436H11.9714Z" fill="white"/>
<path d="M11.7762 6.09611C11.823 6.09353 11.8699 6.09855 11.9152 6.11099C11.9347 6.11803 11.9535 6.12717 11.9712 6.13826V4.83882L11.9542 4.85866C11.8572 4.9307 11.7745 5.02073 11.7104 5.124C11.7104 5.124 11.7104 5.124 11.7104 5.10913C11.7104 5.09425 11.6593 5.1612 11.6495 5.17856C11.6129 5.2356 11.5398 5.28519 11.5057 5.35463C11.4716 5.42407 11.5057 5.46622 11.4521 5.52078C11.4375 5.54082 11.4274 5.56382 11.4223 5.58821C11.4173 5.6126 11.4175 5.63782 11.4228 5.66213C11.4258 5.67856 11.4347 5.69326 11.4478 5.70335C11.4609 5.71345 11.4772 5.7182 11.4935 5.71669C11.519 5.71384 11.5433 5.70445 11.5642 5.68941C11.5788 5.68941 11.591 5.65469 11.6129 5.65221C11.6129 5.65221 11.6349 5.64973 11.6129 5.65221C11.6129 5.65221 11.6373 5.70677 11.6568 5.72909C11.6763 5.75141 11.7007 5.75885 11.7129 5.7886C11.7251 5.81836 11.7129 5.8754 11.7348 5.863C11.7567 5.8506 11.7202 5.88036 11.7177 5.88532C11.764 5.92004 11.7446 5.96467 11.7177 6.00931C11.6909 6.05395 11.7177 6.08371 11.786 6.08619" fill="white"/>
<path d="M10.9818 3.50165C10.9947 3.49545 11.0089 3.49224 11.0232 3.49224C11.0375 3.49224 11.0517 3.49545 11.0646 3.50165C11.1395 3.5247 11.2128 3.55287 11.284 3.58596L11.3669 3.61076C11.418 3.61076 11.4643 3.65292 11.5228 3.62812C11.5813 3.60332 11.6106 3.54628 11.652 3.51405C11.6934 3.48181 11.7324 3.41981 11.7812 3.41981C11.7812 3.43469 11.7812 3.44957 11.7641 3.46197C11.7471 3.47437 11.7446 3.53388 11.7008 3.56116C11.6951 3.56716 11.6919 3.57516 11.6919 3.58348C11.6919 3.5918 11.6951 3.5998 11.7008 3.6058C11.7519 3.57108 11.7763 3.65788 11.769 3.68267C11.7617 3.70747 11.6691 3.77195 11.7081 3.80915C11.6739 3.83643 11.7227 3.86866 11.7519 3.85874C11.8025 3.84337 11.8453 3.80873 11.8714 3.76203C11.9032 3.72023 11.9309 3.67538 11.9542 3.62812C11.9542 3.61324 11.9664 3.61076 11.9713 3.59588V0.972198H10.9257V3.51156H10.9452C10.9574 3.51032 10.9696 3.51032 10.9818 3.51156" fill="white"/>
<path d="M11.2449 12.5015L11.3619 12.7247L11.6397 12.4593C11.6397 12.4593 11.7519 12.2262 11.803 12.1394C11.8381 12.068 11.8981 12.0123 11.9712 11.9832V10.6615L11.8737 10.6887C11.8326 10.7064 11.794 10.7298 11.7592 10.7582C11.7348 10.7929 11.7592 10.7929 11.6885 10.8202C11.6656 10.8409 11.638 10.8554 11.6081 10.8623L11.4691 10.8474L11.2498 10.8102L11.1621 10.8648C11.1621 10.8648 11.1767 10.8474 10.9183 10.9838V12.4519C10.9673 12.4973 11.0244 12.5326 11.0865 12.5561C11.1137 12.5594 11.1413 12.5566 11.1674 12.5481C11.1935 12.5395 11.2174 12.5253 11.2376 12.5065" fill="white"/>
<path d="M19.9116 14.2599L20.2041 14.2995L20.5039 14.4781L20.811 14.6765L21.1619 14.6963H21.352L21.8053 14.8327C21.9594 14.9034 22.1077 14.9863 22.2489 15.0807H27.8545V14.0887H19.8483C19.8873 14.1036 19.9263 14.116 19.9555 14.1309C20.1992 14.24 19.9116 14.2648 19.9116 14.2648" fill="white"/>
<path d="M14.1282 15.0856H16.3217C16.3656 14.8847 15.8343 14.8103 15.7928 14.7533C15.7928 14.7533 15.6125 14.726 15.5637 14.6615C15.515 14.597 15.2591 14.4135 15.2591 14.4135C15.0665 14.4101 14.8742 14.4301 14.6863 14.4731L14.5889 14.6194L14.2501 14.5673C14.178 14.546 14.1102 14.5116 14.0502 14.4656H13.7748L13.6383 14.3838L13.3556 14.3441L13.1607 14.2895L13.1192 14.0887L13.0802 14.0589V15.0707L14.1282 15.0856Z" fill="white"/>
<path d="M18.0839 14.1853C18.1388 14.1753 18.1887 14.1464 18.2253 14.1035C18.2253 14.1035 18.2472 14.1035 18.2642 14.0836H17.9255L17.9425 14.1258C17.9609 14.145 17.9828 14.1602 18.0072 14.1704C18.0315 14.1807 18.0576 14.1857 18.0839 14.1853Z" fill="white"/>
<path d="M15.481 14.1528L15.6345 14.1949L15.8149 14.3165H15.9709C15.9709 14.3165 16.2536 14.1751 16.4705 14.0685H15.3421L15.481 14.1528Z" fill="white"/>
<path d="M13.3776 13.0791C13.4457 13.0942 13.515 13.1033 13.5847 13.1063C13.6627 13.1063 13.6115 13.2105 13.6115 13.2105L13.6286 13.4585C13.629 13.5191 13.6339 13.5796 13.6432 13.6395C13.64 13.7398 13.6228 13.8392 13.592 13.9346C13.6376 13.9608 13.6781 13.9952 13.7115 14.0363C13.7651 14.1107 13.826 14.133 13.9722 14.1851C14.0474 14.2078 14.1177 14.2448 14.1794 14.2942C14.1794 14.2942 14.4402 14.2942 14.4987 14.2942C14.5757 14.2584 14.6452 14.2079 14.7034 14.1454L14.9691 14.1032H14.1282V8.81123C14.1162 8.82286 14.1021 8.83211 14.0868 8.83851C14.034 8.86436 13.9842 8.89595 13.9381 8.93275C13.9064 8.93275 13.8869 8.9997 13.8772 9.01954C13.8674 9.03938 13.7943 9.0617 13.7626 9.07658C13.7231 9.0806 13.6848 9.09329 13.6505 9.11378C13.6325 9.12745 13.6181 9.14551 13.6088 9.16632C13.5994 9.18712 13.5953 9.20998 13.5969 9.23281C13.5943 9.27373 13.5809 9.31317 13.5579 9.34688C13.5579 9.37168 13.5969 9.43616 13.6115 9.47583C13.6156 9.50062 13.6248 9.52427 13.6383 9.54527C13.6104 9.61441 13.5778 9.68152 13.5409 9.74614L13.4409 9.82797C13.3798 9.89479 13.3147 9.95773 13.246 10.0164C13.1854 10.0633 13.1299 10.1165 13.0802 10.1752V13.0419L13.1509 13.0071L13.3776 13.0791Z" fill="white"/>
<path d="M13.1142 7.20697C13.1142 7.23673 13.1142 7.23673 13.1606 7.22929C13.2045 7.22152 13.2477 7.2099 13.2897 7.19457C13.3507 7.15241 13.3848 7.0929 13.436 7.05074C13.4871 7.00858 13.6139 6.92923 13.5505 6.84739C13.5286 6.81763 13.4945 6.7978 13.4896 6.75564C13.4847 6.71348 13.4896 6.69364 13.4725 6.6738C13.4555 6.65396 13.3775 6.61181 13.3555 6.55973C13.3336 6.50765 13.3555 6.53493 13.3848 6.50269C13.4132 6.46649 13.449 6.43689 13.4896 6.4159C13.5115 6.4159 13.5408 6.39854 13.5505 6.38118C13.5505 6.38118 13.5603 6.36382 13.5505 6.38118C13.5673 6.355 13.5888 6.33228 13.6139 6.31422C13.6334 6.29687 13.6577 6.29191 13.6748 6.27207C13.6914 6.2402 13.7101 6.20954 13.7309 6.18031C13.782 6.12328 13.8478 6.01912 13.7991 5.93233C13.7761 5.89462 13.75 5.85895 13.7211 5.82569C13.7065 5.80833 13.6894 5.80089 13.6846 5.77858C13.6797 5.75626 13.7114 5.73146 13.7065 5.70666C13.7016 5.68186 13.6382 5.68682 13.6382 5.6645C13.6382 5.64218 13.704 5.59507 13.7211 5.58019C13.7184 5.56379 13.7199 5.54696 13.7254 5.53133C13.731 5.51569 13.7404 5.50177 13.7528 5.49091C13.7667 5.48239 13.7791 5.47148 13.7894 5.45868C13.804 5.43884 13.7894 5.41404 13.8088 5.38924C13.8283 5.36444 13.8259 5.357 13.8357 5.3322C13.8348 5.32096 13.8309 5.31017 13.8245 5.30099C13.8181 5.29182 13.8093 5.2846 13.7991 5.28013C13.7625 5.24045 13.7211 5.20573 13.7577 5.15117C13.7846 5.09893 13.8182 5.05056 13.8576 5.00734C13.8799 4.98831 13.8968 4.96345 13.9063 4.93543C13.9108 4.91836 13.9108 4.90042 13.9063 4.88335C13.9258 4.85111 13.9819 4.86103 14.016 4.86847C14.0362 4.87605 14.0557 4.88517 14.0745 4.89575C14.0745 4.89575 14.0745 4.92303 14.1013 4.93047H14.1159V0.962708H13.0679V3.61367L13.1021 3.59135C13.1391 3.55029 13.1644 3.49969 13.1752 3.44504C13.1898 3.4004 13.202 3.34832 13.2215 3.30121C13.2351 3.27427 13.2542 3.2506 13.2775 3.23177C13.2953 3.21669 13.3161 3.20569 13.3385 3.19953C13.3653 3.16481 13.3385 3.16481 13.3068 3.13754C13.2751 3.11026 13.3068 3.11274 13.3068 3.0929C13.3068 3.07306 13.3312 3.03586 13.3726 3.04578C13.414 3.0557 13.4043 3.07802 13.4286 3.09786C13.453 3.1177 13.4555 3.09786 13.4871 3.11274C13.5188 3.12762 13.5164 3.13754 13.5334 3.14994C13.5505 3.16233 13.6334 3.17721 13.6382 3.21689C13.6431 3.25657 13.5968 3.28633 13.5798 3.30865C13.5627 3.33096 13.5554 3.388 13.5164 3.41528C13.4774 3.44256 13.4555 3.45 13.4555 3.47728C13.4689 3.49202 13.4845 3.50457 13.5018 3.51447C13.5164 3.51447 13.5676 3.54423 13.5724 3.55415C13.5773 3.56407 13.5554 3.61119 13.5432 3.62359C13.526 3.65687 13.4998 3.68441 13.4676 3.70294C13.4238 3.74262 13.436 3.79718 13.3799 3.82445C13.3365 3.83625 13.2904 3.83094 13.2507 3.80958C13.2337 3.80958 13.2337 3.80958 13.2215 3.78726C13.163 3.76246 13.1459 3.82445 13.1021 3.83685C13.0868 3.84029 13.071 3.84029 13.0558 3.83685V7.12762C13.0604 7.12963 13.0646 7.13267 13.068 7.13653C13.0714 7.14039 13.0738 7.14497 13.0753 7.14993C13.0899 7.14993 13.0753 7.18713 13.0899 7.19953" fill="white"/>
<path d="M16.2755 13.0296H27.8888V12.0377H16.2755V6.76303C16.2446 6.79014 16.2153 6.81912 16.1878 6.84983C16.0856 6.92937 15.97 6.98906 15.8465 7.02589C15.7209 7.04692 15.5937 7.0577 15.4663 7.05813C15.4663 7.05813 15.3347 7.08541 15.2226 7.11517V7.74257C15.2821 7.76241 15.334 7.80053 15.3713 7.85169C15.3957 7.88144 15.4225 7.93104 15.4663 7.9484C15.5102 7.96576 15.6467 7.87152 15.6467 7.87152L15.732 7.81945L15.7539 7.88144C15.7539 7.88144 15.7539 7.90872 15.7052 7.92856C15.6564 7.9484 15.6711 7.97072 15.6028 8.0228C15.5581 8.06589 15.5061 8.10035 15.4493 8.12447C15.3891 8.12959 15.3296 8.14038 15.2714 8.15671H15.2348V13.0296H16.2755Z" fill="white"/>
<path d="M15.4467 5.2997L15.5613 5.27738C15.567 5.32182 15.567 5.36685 15.5613 5.41129C15.5537 5.47859 15.5586 5.54674 15.5759 5.61216C15.5829 5.62414 15.5937 5.63335 15.6066 5.6383C15.6194 5.64325 15.6335 5.64365 15.6466 5.63944C15.6904 5.63944 15.7367 5.71135 15.7952 5.73367C15.8537 5.75599 15.8805 5.80063 15.8757 5.84279C15.8708 5.88494 15.8318 5.90974 15.8196 5.99902C15.8074 6.08829 15.9439 6.08829 15.9878 6.11061C16.0316 6.13293 16.2315 6.15029 16.2315 6.16269C16.2315 6.17509 16.268 6.22468 16.2607 6.25444V0.96492H15.2322V5.63944C15.2517 5.59728 15.3297 5.44105 15.3468 5.41625C15.3764 5.37734 15.4099 5.34161 15.4467 5.30962" fill="white"/>
<path d="M15.9098 6.79742C15.9098 6.79742 15.9391 6.74038 15.9342 6.72798C15.9293 6.71558 15.9342 6.67839 15.9683 6.65111C16.0024 6.62383 16.0414 6.62631 16.1097 6.62383C16.1389 6.62383 16.212 6.58663 16.2754 6.55687V6.25929C16.2758 6.26177 16.2756 6.2643 16.2749 6.2667C16.2742 6.2691 16.273 6.27132 16.2714 6.2732C16.2697 6.27509 16.2677 6.2766 16.2655 6.27762C16.2633 6.27864 16.2608 6.27916 16.2584 6.27913C16.212 6.27913 16.212 6.38081 16.1438 6.42296C16.0756 6.46512 15.9488 6.48496 15.9001 6.53456C15.8513 6.58415 15.9245 6.62383 15.9318 6.64367C15.9391 6.66351 15.9147 6.67839 15.8684 6.72798C15.8221 6.77758 15.9025 6.79742 15.9025 6.79742" fill="white"/>
<path d="M18.4348 9.96961V0.967758H17.3893V9.96961V10.969H18.4348H27.9228V9.96961H18.4348Z" fill="white"/>
<path d="M20.5867 8.91311H27.852V7.90877H20.5867V0.962708H19.5363V7.90877V8.91311H20.5867Z" fill="white"/>
<path d="M22.7437 6.85937H27.8862V5.85503H22.7437V0.954849H21.6932V5.85503V6.85937H22.7437Z" fill="white"/>
<path d="M24.8958 4.80384H27.9155V3.80198H24.8958V0.952637H23.8429V3.80198V4.80384H24.8958Z" fill="white"/>
<path d="M27.0452 2.74801H27.8495V1.7412H27.0452V0.982361H25.9948V1.7412V2.74801H27.0452Z" fill="white"/>
<path d="M11.9712 4.72932V4.83844C11.9882 4.82356 12.015 4.80372 12.0077 4.78388C12.0004 4.76404 11.9736 4.74916 11.9712 4.72932Z" fill="white"/>
<path d="M30.9229 14.0511H33.3431V25.1806H39.3702V27.4423H30.9229V14.0511Z" fill="white"/>
<path d="M44.3179 22.1428L45.9459 17.1831L47.6056 22.1428H44.3179ZM52.0633 27.4423L47.2522 14.0511H44.6883L40.0089 27.4423H42.5923L43.5672 24.4069H48.3685L49.4116 27.4423H52.0633Z" fill="white"/>
<path d="M52.9114 14.0511H61.1418V16.3127H55.3218V19.4844H60.3546V21.7485H55.3218V27.4423H52.9114V14.0511Z" fill="white"/>
<path d="M64.9415 14.0511H62.5262V27.4398H64.9415V14.0511Z" fill="white"/>
<path d="M68.2632 22.8376C68.3753 23.5319 68.6897 25.4017 70.8807 25.4017C72.5673 25.4017 73.2375 24.4098 73.2375 23.5542C73.2375 22.4259 72.3942 22.1829 70.1837 21.5852C68.987 21.248 66.3402 20.5189 66.3402 17.5704C66.3402 16.0998 67.2054 13.8233 70.7272 13.8233C73.0718 13.8233 75.2165 14.8425 75.3238 17.868L72.8866 17.9919C72.7842 17.2976 72.6112 16.0428 70.6931 16.0428C69.9619 16.0428 68.6604 16.2908 68.6604 17.367C68.6604 18.23 69.4135 18.6069 71.3414 19.1029C73.1693 19.5989 75.6552 20.2486 75.6552 23.5493C75.6552 25.1761 74.7388 26.5251 73.6908 27.0583C72.6233 27.6262 71.4096 27.6609 70.8661 27.6609C69.5695 27.6609 66.3792 27.5294 65.9137 23.0732L68.2632 22.8376Z" fill="white"/>
<path d="M76.6959 14.0511H85.6039V16.3127H79.1234V19.286H85.153V21.5477H79.1234V25.1806H85.8159V27.4423H76.6959V14.0511Z" fill="white"/>
<path d="M86.1718 28.8235H0.158173V29.6245H86.1718V28.8235Z" fill="white"/>
<path d="M31.118 5.19837H33.8476C34.2552 5.18925 34.6629 5.21497 35.0662 5.27524C35.3252 5.32401 35.569 5.43449 35.7779 5.59763C36.1443 5.8977 36.3944 6.32021 36.4836 6.79011C36.5729 7.26002 36.4955 7.74689 36.2653 8.16427C36.1035 8.4584 35.8591 8.69671 35.5634 8.84871C35.9526 8.9675 36.291 9.21654 36.5237 9.55547C36.749 9.9037 36.863 10.3142 36.8503 10.7309C36.8501 11.087 36.7771 11.4392 36.6358 11.765C36.5059 12.0774 36.3025 12.3525 36.0436 12.566C35.7743 12.7738 35.4537 12.9017 35.1174 12.9355C34.8883 12.9628 34.3326 12.9801 33.4553 12.9876H31.1302L31.118 5.19837ZM32.4974 6.49533V8.2957H33.4016C33.9378 8.2957 34.2717 8.2957 34.4033 8.2709C34.511 8.26306 34.616 8.23364 34.7125 8.18434C34.8089 8.13505 34.8948 8.06684 34.9652 7.98364C35.0357 7.90045 35.0893 7.80391 35.1229 7.69957C35.1566 7.59524 35.1696 7.48516 35.1613 7.37568C35.17 7.16557 35.1091 6.95856 34.9883 6.78795C34.8566 6.6306 34.6691 6.53256 34.4667 6.51517C34.3326 6.49533 33.9378 6.48789 33.2895 6.48789L32.4974 6.49533ZM32.4974 9.59266V11.6757H33.7745C34.0897 11.6874 34.4052 11.6717 34.7177 11.6286C34.9165 11.5907 35.0949 11.4805 35.2198 11.3186C35.3564 11.1268 35.4244 10.8931 35.4123 10.6565C35.4192 10.4478 35.3677 10.2414 35.2637 10.0614C35.1643 9.89655 35.0131 9.77072 34.8347 9.70426C34.436 9.60697 34.0255 9.56938 33.6161 9.59266H32.4974Z" fill="white"/>
<path d="M44.1617 12.9875H42.6604L42.0657 11.2194H39.3361L38.7731 12.9875H37.3108L39.9697 5.19829H41.4321L44.1617 12.9875ZM41.6246 9.90504L40.6814 7.01602L39.7601 9.90504H41.6246Z" fill="white"/>
<path d="M44.9074 12.9875V5.19829H46.2503L49.0434 10.401V5.19829H50.3253V12.9875H48.941L46.1894 7.90876V12.9875H44.9074Z" fill="white"/>
<path d="M56.1553 10.1229L57.4933 10.6189C57.287 11.4687 56.9457 12.1002 56.4697 12.5135C55.9592 12.9389 55.3133 13.1595 54.654 13.1335C54.2266 13.1427 53.8029 13.0521 53.4155 12.8685C53.028 12.6849 52.6871 12.4133 52.4191 12.0746C51.8341 11.367 51.5425 10.4007 51.5441 9.17562C51.5441 7.87948 51.8374 6.87266 52.4239 6.15516C52.7019 5.80598 53.0557 5.52709 53.4574 5.34036C53.8591 5.15363 54.2979 5.06414 54.7393 5.0789C55.1178 5.0652 55.4948 5.13326 55.8456 5.27859C56.1964 5.42392 56.5129 5.64322 56.7743 5.92205C57.1225 6.33313 57.3631 6.827 57.4738 7.35789L56.109 7.72986C56.048 7.36277 55.8698 7.02635 55.602 6.77264C55.3461 6.53925 55.0122 6.41417 54.6686 6.42298C54.4289 6.41768 54.1915 6.47153 53.9768 6.57993C53.762 6.68833 53.5762 6.84805 53.4354 7.04542C53.1202 7.45708 52.9625 8.12829 52.9625 9.05906C52.9625 10.051 53.1185 10.7429 53.4281 11.162C53.5657 11.3596 53.7486 11.52 53.961 11.6293C54.1733 11.7387 54.4087 11.7936 54.6467 11.7894C54.8226 11.7912 54.9971 11.7568 55.1596 11.6881C55.3221 11.6195 55.4693 11.5181 55.5923 11.3901C55.8974 11.0369 56.0947 10.6008 56.1602 10.1353" fill="white"/>
<path d="M58.3951 9.14121C58.3771 8.46109 58.4829 7.78345 58.707 7.14245C58.8593 6.75349 59.0743 6.39309 59.3431 6.07612C59.5858 5.78203 59.8864 5.54295 60.2254 5.37432C60.6844 5.16267 61.1839 5.05763 61.6877 5.06682C62.1436 5.04837 62.5976 5.13465 63.0162 5.31926C63.4347 5.50387 63.807 5.78205 64.1054 6.13315C64.7099 6.8457 65.0113 7.83764 65.0096 9.10897C65.008 10.3803 64.709 11.364 64.1127 12.06C63.8172 12.4106 63.4475 12.6887 63.0313 12.8734C62.6151 13.058 62.1633 13.1445 61.7097 13.1263C61.2513 13.148 60.794 13.064 60.372 12.8807C59.95 12.6973 59.5741 12.4193 59.2725 12.0674C58.6729 11.3598 58.3731 10.3861 58.3731 9.14617L58.3951 9.14121ZM59.7965 9.09409C59.7965 9.97444 59.9719 10.644 60.3302 11.1003C60.4906 11.3166 60.6995 11.4909 60.9394 11.6087C61.1793 11.7264 61.4434 11.7842 61.7097 11.7773C61.9729 11.7815 62.2334 11.7218 62.4694 11.6033C62.7055 11.4847 62.9104 11.3105 63.0672 11.0953C63.4181 10.644 63.5961 9.96452 63.5961 9.06186C63.5961 8.15919 63.423 7.50451 63.0794 7.0631C62.9134 6.85618 62.7043 6.68941 62.4672 6.57489C62.2301 6.46036 61.9709 6.40095 61.7084 6.40095C61.446 6.40095 61.1868 6.46036 60.9497 6.57489C60.7126 6.68941 60.5035 6.85618 60.3375 7.0631C59.9914 7.50782 59.8184 8.1782 59.8184 9.07425" fill="white"/>
</g>
<defs>
<clipPath id="clip0_553_714">
<rect width="86.0161" height="28.672" fill="white" transform="translate(0.158173 0.952637)"/>
</clipPath>
</defs>
</svg>
