<svg width="20" height="21" viewBox="0 0 20 21" fill="none" xmlns="http://www.w3.org/2000/svg">
<path d="M16.6667 7.96075H9.16667C8.24619 7.96075 7.5 8.70695 7.5 9.62742V17.1274C7.5 18.0479 8.24619 18.7941 9.16667 18.7941H16.6667C17.5871 18.7941 18.3333 18.0479 18.3333 17.1274V9.62742C18.3333 8.70695 17.5871 7.96075 16.6667 7.96075Z" stroke="#3B8668" stroke-width="2" stroke-linecap="round" stroke-linejoin="round"/>
<path d="M4.16666 12.9607H3.33332C2.8913 12.9607 2.46737 12.7851 2.15481 12.4726C1.84225 12.16 1.66666 11.7361 1.66666 11.2941V3.79408C1.66666 3.35205 1.84225 2.92813 2.15481 2.61557C2.46737 2.30301 2.8913 2.12741 3.33332 2.12741H10.8333C11.2754 2.12741 11.6993 2.30301 12.0118 2.61557C12.3244 2.92813 12.5 3.35205 12.5 3.79408V4.62741" stroke="#3B8668" stroke-width="2" stroke-linecap="round" stroke-linejoin="round"/>
</svg>
