<svg width="25" height="24" viewBox="0 0 25 24" fill="none" xmlns="http://www.w3.org/2000/svg">
<g clip-path="url(#clip0_954_775)">
<path d="M22.5 12C22.5 6.48 18.02 2 12.5 2C6.98 2 2.5 6.48 2.5 12C2.5 17.52 6.98 22 12.5 22C18.02 22 22.5 17.52 22.5 12ZM15.5 6.5L18.65 9.65C18.85 9.85 18.85 10.16 18.65 10.36L15.5 13.5V11H11.5V9H15.5V6.5ZM9.5 17.5L6.35 14.35C6.15 14.15 6.15 13.84 6.35 13.64L9.5 10.5V13H13.5V15H9.5V17.5Z" fill="#3B8668"/>
</g>
<defs>
<clipPath id="clip0_954_775">
<rect width="24" height="24" fill="white" transform="translate(0.5)"/>
</clipPath>
</defs>
</svg>
