<svg width="40" height="41" viewBox="0 0 40 41" fill="none" xmlns="http://www.w3.org/2000/svg">
<path d="M20.0002 40.4608C31.0453 40.4608 39.999 31.5054 39.999 20.4601C39.999 9.41471 31.0453 0.460754 20.0002 0.460754C8.95508 0.460754 0 9.41471 0 20.4601C0 31.5054 8.95508 40.4608 20.0002 40.4608Z" fill="white"/>
<path fill-rule="evenodd" clip-rule="evenodd" d="M34.4987 6.68228C33.3728 5.49738 32.1042 4.45097 30.7191 3.57053H9.28447C7.89938 4.45097 6.63088 5.49738 5.50498 6.68228H34.4987ZM38.525 12.9044C38.0807 11.8155 37.5431 10.7759 36.9233 9.7926H3.08175C2.46052 10.7759 1.92293 11.8155 1.4786 12.9044H38.525ZM39.5056 16.0147C39.7346 17.0255 39.8882 18.065 39.9581 19.1265H0.046875C0.116815 18.065 0.269052 17.0255 0.498072 16.0147H39.5056ZM39.4 25.3486C39.6537 24.3392 39.8306 23.301 39.9238 22.2368H0.0811511C0.174405 23.301 0.351339 24.3392 0.605044 25.3486H39.4ZM38.3371 28.4589C37.8613 29.5506 37.2894 30.5914 36.6339 31.5706H3.37111C2.71559 30.5914 2.14372 29.5506 1.66785 28.4589H38.3371ZM29.9854 37.7927C31.4761 36.9315 32.8461 35.8837 34.0625 34.681H5.94107C7.15611 35.8837 8.52609 36.9315 10.0168 37.7927H29.9854Z" fill="white"/>
<path fill-rule="evenodd" clip-rule="evenodd" d="M20.0011 0.460754C23.9439 0.460754 27.6205 1.60178 30.7185 3.57112H20.0011V0.460754ZM20.0011 9.7932H36.9212C36.2163 8.67687 35.4031 7.63601 34.498 6.68287H20.0011V9.7932ZM39.5049 16.0153H20.0011V12.905H38.5244C38.9317 13.9047 39.2608 14.9442 39.5049 16.0153ZM0.000976562 20.4601C0.000976562 21.0594 0.0283717 21.6518 0.0791127 22.2374H39.9218C39.9739 21.6518 40 21.0594 40 20.4601C40 20.0116 39.9849 19.5673 39.9561 19.1271H20.0011V20.4601H0.000976562ZM38.3351 28.4609C38.7712 27.4625 39.1278 26.423 39.3979 25.3491H0.603005C0.873167 26.423 1.22972 27.4625 1.66582 28.4609H38.3351ZM36.6319 31.5712C35.8804 32.6944 35.0191 33.7367 34.0619 34.683H5.93903C4.98318 33.7367 4.12059 32.6944 3.36907 31.5712H36.6319ZM20.0011 40.4608C23.6367 40.4608 27.0473 39.4898 29.9848 37.7933H10.0161C12.955 39.4898 16.3642 40.4608 20.0011 40.4608Z" fill="#CF1E2B"/>
<path d="M20.0002 0.460754C8.95508 0.460754 0 9.41471 0 20.4601H20.0002V0.460754Z" fill="#003399"/>
<path d="M7.64922 8.1187L7.04306 8.46016L7.15827 7.73605L6.6687 7.22455L7.34614 7.11896L7.64922 6.46069L7.95231 7.11896L8.62974 7.22455L8.14017 7.73605L8.25535 8.46016L7.64922 8.1187Z" fill="white"/>
<path d="M7.64922 11.6744L7.04306 12.0159L7.15827 11.2918L6.6687 10.779L7.34614 10.6734L7.64922 10.0151L7.95231 10.6734L8.62974 10.779L8.14017 11.2918L8.25535 12.0159L7.64922 11.6744Z" fill="white"/>
<path d="M5.20446 10.3405L4.59833 10.682L4.71351 9.95927L4.22394 9.44639L4.90142 9.3408L5.20446 8.68253L5.50754 9.3408L6.18502 9.44639L5.69541 9.95927L5.81063 10.682L5.20446 10.3405Z" fill="white"/>
<path d="M4.98221 13.674L4.37608 14.0154L4.49126 13.2914L4.00031 12.7798L4.67912 12.6742L4.98221 12.016L5.28529 12.6742L5.96273 12.7798L5.47178 13.2914L5.58833 14.0154L4.98221 13.674Z" fill="white"/>
<path d="M7.20397 15.8958L6.59785 16.2372L6.71302 15.5146L6.22345 15.0016L6.90089 14.8961L7.20397 14.2378L7.50705 14.8961L8.18449 15.0016L7.69492 15.5146L7.81014 16.2372L7.20397 15.8958Z" fill="white"/>
<path d="M4.98221 17.2297L4.37608 17.5712L4.49126 16.8471L4.00031 16.3343L4.67912 16.2287L4.98221 15.5704L5.28529 16.2287L5.96273 16.3343L5.47178 16.8471L5.58833 17.5712L4.98221 17.2297Z" fill="white"/>
<path d="M2.53807 15.4511L1.93057 15.7926L2.04712 15.0699L1.55621 14.557L2.23503 14.4514L2.53807 13.7932L2.84116 14.4514L3.51864 14.557L3.02769 15.0699L3.14424 15.7926L2.53807 15.4511Z" fill="white"/>
<path d="M2.53807 19.0083L1.93057 19.3497L2.04712 18.6256L1.55621 18.1141L2.23503 18.0086L2.53807 17.3503L2.84116 18.0086L3.51864 18.1141L3.02769 18.6256L3.14424 19.3497L2.53807 19.0083Z" fill="white"/>
<path d="M7.64922 19.0083L7.04306 19.3497L7.15827 18.6256L6.6687 18.1141L7.34614 18.0086L7.64922 17.3503L7.95231 18.0086L8.62974 18.1141L8.14017 18.6256L8.25535 19.3497L7.64922 19.0083Z" fill="white"/>
<path d="M17.8703 4.1183L17.2641 4.45976L17.3807 3.73704L16.8898 3.22416L17.5672 3.11857L17.8703 2.4603L18.1733 3.11857L18.8508 3.22416L18.3612 3.73704L18.4764 4.45976L17.8703 4.1183Z" fill="white"/>
<path d="M17.8703 7.67405L17.2641 8.01551L17.3807 7.29145L16.8898 6.77991L17.5672 6.67432L17.8703 6.01605L18.1733 6.67432L18.8508 6.77991L18.3612 7.29145L18.4764 8.01551L17.8703 7.67405Z" fill="white"/>
<path d="M17.8703 11.2298L17.2641 11.5713L17.3807 10.8472L16.8898 10.3343L17.5672 10.2287L17.8703 9.57047L18.1733 10.2287L18.8508 10.3343L18.3612 10.8472L18.4764 11.5713L17.8703 11.2298Z" fill="white"/>
<path d="M17.8703 14.7855L17.2641 15.127L17.3807 14.4043L16.8898 13.8914L17.5672 13.7858L17.8703 13.1276L18.1733 13.7858L18.8508 13.8914L18.3612 14.4043L18.4764 15.127L17.8703 14.7855Z" fill="white"/>
<path d="M15.2032 6.11915L14.5971 6.46061L14.7123 5.73655L14.2227 5.22501L14.9002 5.11942L15.2032 4.45981L15.5063 5.11942L16.1838 5.22501L15.6942 5.73655L15.8094 6.46061L15.2032 6.11915Z" fill="white"/>
<path d="M15.2032 9.67357L14.5971 10.015L14.7123 9.29231L14.2227 8.77942L14.9002 8.67383L15.2032 8.01556L15.5063 8.67383L16.1838 8.77942L15.6942 9.29231L15.8094 10.015L15.2032 9.67357Z" fill="white"/>
<path d="M15.2032 13.2293L14.5971 13.5707L14.7123 12.8467L14.2227 12.3351L14.9002 12.2295L15.2032 11.5713L15.5063 12.2295L16.1838 12.3351L15.6942 12.8467L15.8094 13.5707L15.2032 13.2293Z" fill="white"/>
<path d="M15.2032 16.7851L14.5971 17.1279L14.7123 16.4038L14.2227 15.891L14.9002 15.7854L15.2032 15.1271L15.5063 15.7854L16.1838 15.891L15.6942 16.4038L15.8094 17.1279L15.2032 16.7851Z" fill="white"/>
<path d="M17.8703 18.5636L17.2641 18.9051L17.3807 18.181L16.8898 17.6695L17.5672 17.5639L17.8703 16.9043L18.1733 17.5639L18.8508 17.6695L18.3612 18.181L18.4764 18.9051L17.8703 18.5636Z" fill="white"/>
<path d="M12.9828 4.56287L12.3767 4.90571L12.4919 4.18165L12.0009 3.66877L12.6797 3.56314L12.9828 2.90491L13.2859 3.56314L13.9633 3.66877L13.4724 4.18165L13.5889 4.90571L12.9828 4.56287Z" fill="white"/>
<path d="M12.9828 8.1187L12.3767 8.46016L12.4919 7.73605L12.0009 7.22455L12.6797 7.11896L12.9828 6.46069L13.2859 7.11896L13.9633 7.22455L13.4724 7.73605L13.5889 8.46016L12.9828 8.1187Z" fill="white"/>
<path d="M12.9828 11.6744L12.3767 12.0159L12.4919 11.2918L12.0009 10.779L12.6797 10.6734L12.9828 10.0151L13.2859 10.6734L13.9633 10.779L13.4724 11.2918L13.5889 12.0159L12.9828 11.6744Z" fill="white"/>
<path d="M12.9828 15.2289L12.3767 15.5703L12.4919 14.8476L12.0009 14.3347L12.6797 14.2291L12.9828 13.5709L13.2859 14.2291L13.9633 14.3347L13.4724 14.8476L13.5889 15.5703L12.9828 15.2289Z" fill="white"/>
<path d="M10.3143 6.56379L9.7082 6.90525L9.82475 6.18119L9.3338 5.66965L10.0112 5.56406L10.3143 4.90579L10.6174 5.56406L11.2962 5.66965L10.8053 6.18119L10.9218 6.90525L10.3143 6.56379Z" fill="white"/>
<path d="M10.3143 10.1182L9.7082 10.4597L9.82475 9.73695L9.3338 9.22407L10.0112 9.11848L10.3143 8.46021L10.6174 9.11848L11.2962 9.22407L10.8053 9.73695L10.9218 10.4597L10.3143 10.1182Z" fill="white"/>
<path d="M10.3143 13.674L9.7082 14.0154L9.82475 13.2914L9.3338 12.7798L10.0112 12.6742L10.3143 12.016L10.6174 12.6742L11.2962 12.7798L10.8053 13.2914L10.9218 14.0154L10.3143 13.674Z" fill="white"/>
<path d="M10.3143 17.2297L9.7082 17.5712L9.82475 16.8471L9.3338 16.3343L10.0112 16.2287L10.3143 15.5704L10.6174 16.2287L11.2962 16.3343L10.8053 16.8471L10.9218 17.5712L10.3143 17.2297Z" fill="white"/>
<path d="M12.9828 19.0083L12.3767 19.3497L12.4919 18.6256L12.0009 18.1141L12.6797 18.0086L12.9828 17.3503L13.2859 18.0086L13.9633 18.1141L13.4724 18.6256L13.5889 19.3497L12.9828 19.0083Z" fill="white"/>
</svg>
